<svg id="visual" viewBox="0 0 960 540" width="960" height="540" xmlns="http://www.w3.org/2000/svg" xmlns:xlink="http://www.w3.org/1999/xlink" version="1.1"><g stroke-width="1" stroke-linejoin="bevel"><path d="M444.7 279L518.3 243L392.7 209Z" fill="#00a482" stroke="#00a482"></path><path d="M392.7 209L354 262L444.7 279Z" fill="#07212e" stroke="#07212e"></path><path d="M518.3 243L455.7 87L392.7 209Z" fill="#17c964" stroke="#17c964"></path><path d="M562.3 147L455.7 87L518.3 243Z" fill="#17c964" stroke="#17c964"></path><path d="M392.7 209L291 210L354 262Z" fill="#00a482" stroke="#00a482"></path><path d="M518.3 243L607 199L562.3 147Z" fill="#073141" stroke="#073141"></path><path d="M354 262L417.7 362L444.7 279Z" fill="#00a482" stroke="#00a482"></path><path d="M555.3 380L607 327L518.3 243Z" fill="#00101c" stroke="#00101c"></path><path d="M518.3 243L607 327L607 199Z" fill="#00b777" stroke="#00b777"></path><path d="M321 91L291 210L392.7 209Z" fill="#009186" stroke="#009186"></path><path d="M354 262L298 335L417.7 362Z" fill="#007d81" stroke="#007d81"></path><path d="M562.3 147L505.3 53L455.7 87Z" fill="#005664" stroke="#005664"></path><path d="M620 111L505.3 53L562.3 147Z" fill="#006974" stroke="#006974"></path><path d="M337 0L321 91L455.7 87Z" fill="#00a482" stroke="#00a482"></path><path d="M455.7 87L321 91L392.7 209Z" fill="#007d81" stroke="#007d81"></path><path d="M555.3 380L518.3 243L444.7 279Z" fill="#044353" stroke="#044353"></path><path d="M747.7 151L620 111L607 199Z" fill="#006974" stroke="#006974"></path><path d="M607 199L620 111L562.3 147Z" fill="#00b777" stroke="#00b777"></path><path d="M417.7 362L555.3 380L444.7 279Z" fill="#007d81" stroke="#007d81"></path><path d="M291 210L298 335L354 262Z" fill="#073141" stroke="#073141"></path><path d="M510.3 0L438.7 0L505.3 53Z" fill="#00a482" stroke="#00a482"></path><path d="M505.3 53L438.7 0L455.7 87Z" fill="#044353" stroke="#044353"></path><path d="M711.7 238L669 267L720.7 321Z" fill="#073141" stroke="#073141"></path><path d="M607 327L669 267L607 199Z" fill="#007d81" stroke="#007d81"></path><path d="M622 0L510.3 0L505.3 53Z" fill="#00a482" stroke="#00a482"></path><path d="M438.7 0L337 0L455.7 87Z" fill="#07212e" stroke="#07212e"></path><path d="M191.3 153L213.3 247L291 210Z" fill="#00a482" stroke="#00a482"></path><path d="M291 210L213.3 247L298 335Z" fill="#044353" stroke="#044353"></path><path d="M191.3 153L291 210L321 91Z" fill="#044353" stroke="#044353"></path><path d="M356 452L408.7 459L417.7 362Z" fill="#00a482" stroke="#00a482"></path><path d="M417.7 362L408.7 459L555.3 380Z" fill="#00101c" stroke="#00101c"></path><path d="M356 452L417.7 362L298 335Z" fill="#009186" stroke="#009186"></path><path d="M720.7 321L669 267L607 327Z" fill="#006974" stroke="#006974"></path><path d="M669 267L711.7 238L607 199Z" fill="#007d81" stroke="#007d81"></path><path d="M251.3 436L356 452L298 335Z" fill="#07212e" stroke="#07212e"></path><path d="M734.7 0L622 0L620 111Z" fill="#006974" stroke="#006974"></path><path d="M620 111L622 0L505.3 53Z" fill="#007d81" stroke="#007d81"></path><path d="M216.3 81L191.3 153L321 91Z" fill="#00101c" stroke="#00101c"></path><path d="M337 0L216.3 81L321 91Z" fill="#17c964" stroke="#17c964"></path><path d="M408.7 459L565.3 473L555.3 380Z" fill="#00a482" stroke="#00a482"></path><path d="M555.3 380L646 457L607 327Z" fill="#005664" stroke="#005664"></path><path d="M646 457L720.7 321L607 327Z" fill="#07212e" stroke="#07212e"></path><path d="M841.3 246L747.7 151L711.7 238Z" fill="#005664" stroke="#005664"></path><path d="M711.7 238L747.7 151L607 199Z" fill="#044353" stroke="#044353"></path><path d="M191.3 381L298 335L213.3 247Z" fill="#17c964" stroke="#17c964"></path><path d="M191.3 381L251.3 436L298 335Z" fill="#005664" stroke="#005664"></path><path d="M565.3 473L646 457L555.3 380Z" fill="#009186" stroke="#009186"></path><path d="M110.7 361L191.3 381L213.3 247Z" fill="#006974" stroke="#006974"></path><path d="M408.7 459L463.7 540L565.3 473Z" fill="#07212e" stroke="#07212e"></path><path d="M565.3 473L649 540L646 457Z" fill="#00a482" stroke="#00a482"></path><path d="M348 540L463.7 540L408.7 459Z" fill="#073141" stroke="#073141"></path><path d="M348 540L408.7 459L356 452Z" fill="#07212e" stroke="#07212e"></path><path d="M216.3 81L135.7 155L191.3 153Z" fill="#00a482" stroke="#00a482"></path><path d="M191.3 153L135.7 155L213.3 247Z" fill="#07212e" stroke="#07212e"></path><path d="M337 0L196.3 0L216.3 81Z" fill="#17c964" stroke="#17c964"></path><path d="M216.3 81L91.7 83L135.7 155Z" fill="#07212e" stroke="#07212e"></path><path d="M747.7 151L775.7 91L620 111Z" fill="#17c964" stroke="#17c964"></path><path d="M863.3 125L775.7 91L747.7 151Z" fill="#044353" stroke="#044353"></path><path d="M463.7 540L562.3 540L565.3 473Z" fill="#07212e" stroke="#07212e"></path><path d="M222.3 540L348 540L251.3 436Z" fill="#00101c" stroke="#00101c"></path><path d="M251.3 436L348 540L356 452Z" fill="#009186" stroke="#009186"></path><path d="M135.7 155L111.7 241L213.3 247Z" fill="#009186" stroke="#009186"></path><path d="M775.7 91L734.7 0L620 111Z" fill="#006974" stroke="#006974"></path><path d="M646 457L738.7 441L720.7 321Z" fill="#07212e" stroke="#07212e"></path><path d="M720.7 321L841.3 246L711.7 238Z" fill="#07212e" stroke="#07212e"></path><path d="M751.7 540L738.7 441L646 457Z" fill="#00b777" stroke="#00b777"></path><path d="M562.3 540L649 540L565.3 473Z" fill="#07212e" stroke="#07212e"></path><path d="M111.7 241L110.7 361L213.3 247Z" fill="#007d81" stroke="#007d81"></path><path d="M95.7 459L222.3 540L251.3 436Z" fill="#00a482" stroke="#00a482"></path><path d="M881.3 333L841.3 246L720.7 321Z" fill="#006974" stroke="#006974"></path><path d="M196.3 0L91.7 83L216.3 81Z" fill="#073141" stroke="#073141"></path><path d="M135.7 155L0 201L111.7 241Z" fill="#009186" stroke="#009186"></path><path d="M0 357L95.7 459L110.7 361Z" fill="#009186" stroke="#009186"></path><path d="M841.3 246L849.3 197L747.7 151Z" fill="#00101c" stroke="#00101c"></path><path d="M775.7 91L848.3 0L734.7 0Z" fill="#17c964" stroke="#17c964"></path><path d="M95.7 459L251.3 436L191.3 381Z" fill="#00a482" stroke="#00a482"></path><path d="M960 171L863.3 125L849.3 197Z" fill="#009186" stroke="#009186"></path><path d="M849.3 197L863.3 125L747.7 151Z" fill="#009186" stroke="#009186"></path><path d="M196.3 0L77.7 0L91.7 83Z" fill="#17c964" stroke="#17c964"></path><path d="M0 357L110.7 361L111.7 241Z" fill="#07212e" stroke="#07212e"></path><path d="M0 201L135.7 155L91.7 83Z" fill="#009186" stroke="#009186"></path><path d="M110.7 361L95.7 459L191.3 381Z" fill="#00101c" stroke="#00101c"></path><path d="M649 540L751.7 540L646 457Z" fill="#17c964" stroke="#17c964"></path><path d="M856.3 437L881.3 333L720.7 321Z" fill="#00101c" stroke="#00101c"></path><path d="M856.3 437L720.7 321L738.7 441Z" fill="#17c964" stroke="#17c964"></path><path d="M841.3 246L960 239L849.3 197Z" fill="#005664" stroke="#005664"></path><path d="M863.3 125L848.3 0L775.7 91Z" fill="#00b777" stroke="#00b777"></path><path d="M825.3 540L856.3 437L738.7 441Z" fill="#07212e" stroke="#07212e"></path><path d="M0 78L0 201L91.7 83Z" fill="#006974" stroke="#006974"></path><path d="M0 201L0 243L111.7 241Z" fill="#07212e" stroke="#07212e"></path><path d="M95.7 459L116.7 540L222.3 540Z" fill="#00a482" stroke="#00a482"></path><path d="M0 540L116.7 540L95.7 459Z" fill="#005664" stroke="#005664"></path><path d="M77.7 0L0 78L91.7 83Z" fill="#00101c" stroke="#00101c"></path><path d="M0 243L0 357L111.7 241Z" fill="#073141" stroke="#073141"></path><path d="M751.7 540L825.3 540L738.7 441Z" fill="#006974" stroke="#006974"></path><path d="M881.3 333L960 239L841.3 246Z" fill="#006974" stroke="#006974"></path><path d="M863.3 125L960 0L848.3 0Z" fill="#00101c" stroke="#00101c"></path><path d="M960 398L960 239L881.3 333Z" fill="#00b777" stroke="#00b777"></path><path d="M960 398L881.3 333L856.3 437Z" fill="#07212e" stroke="#07212e"></path><path d="M960 239L960 171L849.3 197Z" fill="#073141" stroke="#073141"></path><path d="M77.7 0L0 0L0 78Z" fill="#073141" stroke="#073141"></path><path d="M960 171L960 123L863.3 125Z" fill="#17c964" stroke="#17c964"></path><path d="M0 357L0 473L95.7 459Z" fill="#006974" stroke="#006974"></path><path d="M960 481L960 398L856.3 437Z" fill="#073141" stroke="#073141"></path><path d="M960 123L960 0L863.3 125Z" fill="#009186" stroke="#009186"></path><path d="M0 473L0 540L95.7 459Z" fill="#07212e" stroke="#07212e"></path><path d="M825.3 540L960 481L856.3 437Z" fill="#073141" stroke="#073141"></path><path d="M825.3 540L960 540L960 481Z" fill="#00101c" stroke="#00101c"></path></g></svg>